<?xml version="1.0" standalone="no"?>
<!DOCTYPE svg PUBLIC "-//W3C//DTD SVG 20010904//EN"
 "http://www.w3.org/TR/2001/REC-SVG-20010904/DTD/svg10.dtd">
<svg version="1.0" xmlns="http://www.w3.org/2000/svg"
 width="600.000000pt" height="600.000000pt" viewBox="0 0 600.000000 600.000000"
 preserveAspectRatio="xMidYMid meet">
<metadata>
Created by potrace 1.11, written by Peter Selinger 2001-2013
</metadata>
<g transform="translate(0.000000,600.000000) scale(0.100000,-0.100000)"
fill="#000000" stroke="none">
<path d="M2810 5444 c-19 -2 -78 -9 -130 -15 -554 -63 -1101 -358 -1462 -789
-461 -550 -639 -1262 -492 -1964 69 -327 233 -672 454 -951 139 -176 377 -385
581 -512 97 -61 291 -156 403 -197 128 -48 331 -99 481 -122 147 -21 456 -24
595 -5 524 72 968 289 1331 650 142 142 208 222 310 378 174 266 294 585 346
915 24 158 24 499 -1 658 -62 403 -224 777 -473 1094 -84 106 -296 313 -403
393 -323 242 -674 390 -1060 448 -102 15 -410 27 -480 19z m-115 -1907 c150
-661 243 -1051 247 -1040 5 10 109 479 233 1043 124 564 228 1033 231 1043 5
16 34 17 420 17 l414 0 0 -1340 0 -1340 -275 0 -275 0 -2 1034 -3 1035 -235
-1035 -235 -1034 -277 0 -276 0 -27 113 c-14 61 -122 528 -239 1037 l-214 925
-1 -1037 -1 -1038 -275 0 -275 0 0 1340 0 1340 412 -2 412 -3 241 -1058z"/>
</g>
</svg>
